<?xml version="1.0" encoding="utf-8"?>
<svg version="1.0" width="512.000000pt" height="512.000000pt" viewBox="0 0 512.000000 512.000000" preserveAspectRatio="xMidYMid meet" xmlns="http://www.w3.org/2000/svg">
  <g transform="translate(0.000000,512.000000) scale(0.100000,-0.100000)" fill="#000000" stroke="none">
    <path d="M1430 4937 c-14 -7 -33 -28 -42 -47 -16 -32 -18 -79 -18 -532 l0 -498 -472 -1 c-339 0 -483 -4 -508 -12 -24 -8 -41 -23 -52 -47 -17 -33 -18 -122 -18 -1427 l0 -1393 -120 0 c-133 0 -168 -10 -188 -55 -18 -38 -15 -59 18 -142 117 -291 359 -506 667 -591 l98 -27 1765 0 1765 0 98 27 c308 85 550 300 667 591 34 85 36 106 16 146 -22 42 -55 51 -186 51 l-120 0 0 1393 c0 1305 -1 1394 -18 1427 -28 58 -39 59 -519 59 l-433 1 0 498 c0 453 -2 500 -18 532 -9 19 -28 40 -42 47 -37 18 -2303 18 -2340 0z m2200 -1502 l0 -1315 -1030 0 -1030 0 0 1315 0 1315 1030 0 1030 0 0 -1315z m-2260 160 l0 -65 -336 0 -336 0 -29 -29 -29 -29 0 -1162 0 -1162 29 -29 29 -29 1861 0 c1301 0 1867 3 1884 11 55 25 52 -37 55 1174 2 616 0 1139 -3 1162 -4 25 -16 51 -32 67 l-26 26 -303 0 -304 0 0 65 0 65 383 -2 382 -3 3 -1337 2 -1338 -89 0 c-101 0 -136 -11 -157 -51 -21 -42 -17 -75 15 -111 l29 -33 235 -5 236 -5 -45 -67 c-96 -143 -257 -261 -429 -315 l-90 -28 -1745 0 -1745 0 -90 28 c-132 41 -225 98 -326 197 -47 47 -100 109 -117 138 l-32 52 785 0 785 0 0 -82 c0 -103 19 -148 70 -165 50 -17 1290 -17 1340 0 51 17 70 62 70 165 l0 82 169 0 c97 0 181 5 200 11 74 26 80 138 10 175 -22 11 -80 14 -266 14 -315 0 -310 3 -315 -170 l-3 -85 -535 0 -535 0 -3 85 c-3 113 -7 127 -45 150 -31 19 -54 20 -744 20 l-713 0 0 1333 c0 734 3 1337 7 1340 3 4 195 7 425 7 l418 0 0 -65z m0 -870 l0 -605 -65 0 c-85 0 -132 -19 -149 -62 -18 -42 -10 -81 21 -113 l26 -25 1387 0 1387 0 26 25 c31 32 39 71 21 113 -17 41 -64 62 -139 62 l-55 0 0 605 0 605 235 0 235 0 0 -1020 0 -1020 -1730 0 -1730 0 0 1020 0 1020 265 0 265 0 0 -605z" style="fill: #0a7298;"/>
    <path d="M2661 4483 c-38 -39 -271 -562 -271 -609 0 -49 45 -94 94 -94 63 0 84 31 214 325 66 149 121 279 122 290 4 42 -1 57 -29 86 -40 39 -92 40 -130 2z" style="fill: rgb(255, 255, 255);"/>
    <path d="M2185 4371 c-16 -10 -68 -57 -114 -105 -82 -85 -84 -87 -78 -128 5 -35 18 -53 89 -125 120 -122 160 -138 219 -85 26 23 32 36 32 71 0 37 -6 48 -47 90 -25 26 -46 51 -46 56 0 5 21 30 46 56 52 53 61 96 30 143 -30 47 -82 58 -131 27z" style="fill: rgb(255, 255, 255);"/>
    <path d="M2923 4380 c-32 -13 -57 -57 -56 -97 1 -28 11 -45 47 -82 25 -26 46 -51 46 -57 0 -5 -16 -26 -36 -45 -69 -65 -77 -128 -22 -174 58 -49 98 -32 222 94 88 90 89 92 83 133 -5 35 -18 53 -89 125 -108 110 -138 126 -195 103z" style="fill: rgb(255, 255, 255);"/>
    <path d="M1813 3593 c-12 -2 -34 -18 -48 -34 -55 -66 -15 -150 76 -164 24 -3 387 -5 806 -3 l762 3 30 29 c60 57 31 153 -50 170 -35 7 -1541 6 -1576 -1z" style="fill: rgb(255, 255, 255);"/>
    <path d="M1769 3221 c-61 -61 -26 -153 64 -166 23 -3 203 -5 399 -3 l356 3 26 24 c47 44 44 112 -8 153 -19 16 -57 18 -414 18 l-394 0 -29 -29z" style="fill: rgb(255, 255, 255);"/>
    <path d="M2881 3224 c-26 -21 -31 -33 -31 -68 0 -52 20 -81 65 -96 86 -28 162 59 121 138 -30 59 -102 71 -155 26z" style="fill: rgb(255, 255, 255);"/>
    <path d="M1795 2898 c-74 -40 -73 -139 2 -177 15 -8 249 -11 808 -11 843 0 828 -1 855 49 13 25 13 77 0 102 -27 50 -11 49 -857 49 -554 -1 -794 -4 -808 -12z" style="fill: rgb(254, 254, 254);"/>
    <path d="M2063 2555 c-61 -26 -74 -106 -24 -156 l29 -29 502 0 502 0 29 29 c50 51 37 130 -26 157 -50 20 -964 20 -1012 -1z" style="fill: rgb(255, 255, 255);"/>
    <path d="M2353 968 c-30 -15 -56 -72 -48 -107 3 -16 17 -39 31 -52 25 -24 28 -24 249 -24 221 0 224 0 248 23 32 30 41 65 27 108 -20 59 -42 64 -277 63 -125 0 -217 -5 -230 -11z" style="fill: #0a7298;"/>
    <path d="M3984 969 c-25 -13 -54 -60 -54 -89 0 -52 49 -100 101 -100 28 0 77 27 89 49 17 34 12 88 -13 116 -25 30 -88 42 -123 24z" style="fill: rgb(8, 172, 196);"/>
  </g>
</svg>
